<svg version="1.1" xmlns="http://www.w3.org/2000/svg" width="125" height="175" viewBox="0 0 125 175">
<path d="M0 0 C41.25 0 82.5 0 125 0 C125 57.75 125 115.5 125 175 C83.75 175 42.5 175 0 175 C0 117.25 0 59.5 0 0 Z " fill="#FFFFFF" transform="translate(0,0)"/>
<path d="M0 0 C7.25352598 6.50957459 14.89723328 18.36184393 15.86889648 28.3137207 C16.57489387 45.81520596 14.39476024 57.5425447 2.66015625 71.17578125 C-1.62926212 76.4860223 -4.59353896 80.75427738 -5.75390625 87.62890625 C-7.23720476 96.22700948 -7.23720476 96.22700948 -11.33984375 99.17578125 C-16.36866504 101.69019189 -24.22786866 100.48895241 -29.82373047 100.52587891 C-31.66077359 100.54241716 -33.49775293 100.5696792 -35.33447266 100.60791016 C-37.98764311 100.66283628 -40.63930538 100.68457755 -43.29296875 100.69921875 C-44.10880432 100.72188812 -44.92463989 100.7445575 -45.76519775 100.76791382 C-49.93257807 100.75256665 -52.5437885 100.43708026 -55.84277344 97.76806641 C-59.23343072 94.24812125 -59.46447268 92.35229255 -60.02734375 87.61328125 C-61.22793744 80.21550541 -64.4320146 75.7435896 -69.078125 70.04296875 C-79.64237751 56.97234148 -82.42786714 44.65732076 -81.33984375 28.17578125 C-80.77692408 24.57881999 -79.81133187 21.49921829 -78.33984375 18.17578125 C-77.75396484 16.84160156 -77.75396484 16.84160156 -77.15625 15.48046875 C-70.87965737 2.7139149 -61.28545409 -4.68493131 -48.33984375 -9.82421875 C-31.08336849 -15.55069789 -13.96958586 -10.89114624 0 0 Z " fill="#F5F7F7" transform="translate(98.33984375,22.82421875)"/>
<path d="M0 0 C7.25352598 6.50957459 14.89723328 18.36184393 15.86889648 28.3137207 C16.57489387 45.81520596 14.39476024 57.5425447 2.66015625 71.17578125 C-1.62926212 76.4860223 -4.59353896 80.75427738 -5.75390625 87.62890625 C-7.23720476 96.22700948 -7.23720476 96.22700948 -11.33984375 99.17578125 C-16.36866504 101.69019189 -24.22786866 100.48895241 -29.82373047 100.52587891 C-31.66077359 100.54241716 -33.49775293 100.5696792 -35.33447266 100.60791016 C-37.98764311 100.66283628 -40.63930538 100.68457755 -43.29296875 100.69921875 C-44.10880432 100.72188812 -44.92463989 100.7445575 -45.76519775 100.76791382 C-49.93257807 100.75256665 -52.5437885 100.43708026 -55.84277344 97.76806641 C-59.23343072 94.24812125 -59.46447268 92.35229255 -60.02734375 87.61328125 C-61.22793744 80.21550541 -64.4320146 75.7435896 -69.078125 70.04296875 C-79.64237751 56.97234148 -82.42786714 44.65732076 -81.33984375 28.17578125 C-80.77692408 24.57881999 -79.81133187 21.49921829 -78.33984375 18.17578125 C-77.75396484 16.84160156 -77.75396484 16.84160156 -77.15625 15.48046875 C-70.87965737 2.7139149 -61.28545409 -4.68493131 -48.33984375 -9.82421875 C-31.08336849 -15.55069789 -13.96958586 -10.89114624 0 0 Z M-67.1875 12.40625 C-74.39989569 22.41854377 -75.38534572 33.18255174 -74.33984375 45.17578125 C-72.58134104 53.91299597 -67.70265529 60.25505798 -62.33984375 67.17578125 C-61.03544758 68.95820175 -59.74308028 70.74950848 -58.46484375 72.55078125 C-57.91054688 73.32164063 -57.35625 74.0925 -56.78515625 74.88671875 C-53.80921607 79.59996455 -53.05075974 83.72590586 -52.68359375 89.1875 C-52.49733232 91.4024973 -52.49733232 91.4024973 -50.33984375 93.17578125 C-47.62673726 93.36323635 -45.0175529 93.43143531 -42.3046875 93.40625 C-41.51083145 93.40579178 -40.7169754 93.40533356 -39.89906311 93.40486145 C-38.22037258 93.4018389 -36.54168485 93.3939525 -34.86303711 93.3815918 C-32.28424217 93.3633301 -29.70580598 93.36108212 -27.12695312 93.36132812 C-25.49869479 93.35641321 -23.87043891 93.35058501 -22.2421875 93.34375 C-21.46616684 93.34263718 -20.69014618 93.34152435 -19.89060974 93.34037781 C-16.31913832 93.63874034 -16.31913832 93.63874034 -13.33984375 92.17578125 C-13.06653159 90.34577809 -12.82162725 88.51150659 -12.58984375 86.67578125 C-10.93087852 76.56683486 -5.871987 70.51598843 0.578125 62.79296875 C6.96695251 54.76198483 10.7613795 43.45386489 9.66015625 33.17578125 C8.22010511 24.7634825 5.50377508 18.18219244 0.66015625 11.17578125 C0.06203125 10.26828125 -0.53609375 9.36078125 -1.15234375 8.42578125 C-8.6404011 0.72377941 -18.60519283 -4.26989073 -29.34472656 -4.43188477 C-30.73449707 -4.40952759 -30.73449707 -4.40952759 -32.15234375 -4.38671875 C-33.12139648 -4.37503662 -34.09044922 -4.36335449 -35.08886719 -4.35131836 C-49.0258165 -3.92236328 -58.33905677 1.72451409 -67.1875 12.40625 Z " fill="#0C9FD2" transform="translate(98.33984375,22.82421875)"/>
<path d="M0 0 C14.85 0 29.7 0 45 0 C45 18 45 18 40 24 C37.1875 24.875 37.1875 24.875 35 25 C35.04125 25.94875 35.0825 26.8975 35.125 27.875 C35 31 35 31 33 33 C30.86108398 33.24291992 30.86108398 33.24291992 28.24609375 33.23046875 C26.84133789 33.22756836 26.84133789 33.22756836 25.40820312 33.22460938 C23.93770508 33.20624023 23.93770508 33.20624023 22.4375 33.1875 C21.45330078 33.18685547 20.46910156 33.18621094 19.45507812 33.18554688 C12.14017532 33.14017532 12.14017532 33.14017532 11 32 C10.95907063 29.66702567 10.95758277 27.33294775 11 25 C10.113125 24.95875 9.22625 24.9175 8.3125 24.875 C5 24 5 24 0 18 C0 12.06 0 6.12 0 0 Z " fill="#059DD2" transform="translate(43,128)"/>
<path d="M0 0 C3.68386204 0.8062545 5.1556308 2.38804811 7.1953125 5.48046875 C7.8203125 8.98046875 7.8203125 8.98046875 7.1953125 12.48046875 C5.95358276 13.5945813 5.95358276 13.5945813 4.68676758 14.73120117 C1.43819317 18.3159338 1.61191623 20.19397582 1.70703125 24.96875 C1.71410599 25.6719487 1.72118073 26.3751474 1.72846985 27.09965515 C1.75632038 29.33187102 1.8190293 31.56151952 1.8828125 33.79296875 C1.90790799 35.31181256 1.93071898 36.83069595 1.95117188 38.34960938 C2.00611243 42.06072123 2.09231511 45.77034416 2.1953125 49.48046875 C3.54996149 48.26104051 4.88645136 47.02141699 6.21484375 45.7734375 C6.96096924 45.08531982 7.70709473 44.39720215 8.47583008 43.68823242 C10.42518402 41.62098326 10.42518402 41.62098326 10.31982422 39.00976562 C10.02468062 37.51261262 9.70783584 36.01959862 9.37109375 34.53125 C9.1953125 32.48046875 9.1953125 32.48046875 11.5703125 29.48046875 C12.4365625 28.82046875 13.3028125 28.16046875 14.1953125 27.48046875 C14.5253125 27.15046875 14.8553125 26.82046875 15.1953125 26.48046875 C22.29260438 26.71316684 22.29260438 26.71316684 25.6953125 29.60546875 C27.61333065 33.28167021 27.85343747 35.38546891 27.1953125 39.48046875 C25.1328125 42.41796875 25.1328125 42.41796875 22.1953125 44.48046875 C18.3828125 44.79296875 18.3828125 44.79296875 15.1953125 44.48046875 C14.98003906 45.05796875 14.76476562 45.63546875 14.54296875 46.23046875 C12.76442533 49.19986298 10.44980655 50.48249644 7.6328125 52.48046875 C3.5224705 56.03274865 1.92705369 58.15967994 1.25 63.58203125 C0.92176203 68.55110354 0.9499502 73.50808223 1.1953125 78.48046875 C-0.7846875 78.48046875 -2.7646875 78.48046875 -4.8046875 78.48046875 C-4.8046875 58.35046875 -4.8046875 38.22046875 -4.8046875 17.48046875 C-6.1246875 16.82046875 -7.4446875 16.16046875 -8.8046875 15.48046875 C-11.2962779 11.74308315 -11.26262035 9.90715292 -10.8046875 5.48046875 C-8.28581643 0.33321047 -5.38423675 -0.32874053 0 0 Z " fill="#0CB4BF" transform="translate(69.8046875,30.51953125)"/>
<path d="M0 0 C2.875 1.5625 2.875 1.5625 5 4 C6.17511188 8.03944709 6.4537165 10.05132004 4.625 13.875 C3 16 3 16 2 17 C1.54376451 19.87619136 1.54376451 19.87619136 2 23 C3.94071329 25.12125567 3.94071329 25.12125567 6.46484375 26.93359375 C10.70826772 30.89761532 11.6703119 33.42762113 11.87890625 39.22265625 C11.8196301 41.83739312 11.71306448 44.45142879 11.5625 47.0625 C11.51726265 48.41848553 11.47621429 49.77461759 11.43945312 51.13085938 C11.33396706 54.42436864 11.18650094 57.71025092 11 61 C9.02 61 7.04 61 5 61 C5.02525757 59.84383179 5.02525757 59.84383179 5.05102539 58.66430664 C5.10168118 55.12927532 5.08259736 51.59780899 5.0625 48.0625 C5.09021484 46.85013672 5.11792969 45.63777344 5.14648438 44.38867188 C5.08444077 37.3547283 5.08444077 37.3547283 1.94946289 31.24462891 C-0.46160994 28.84715673 -0.46160994 28.84715673 -3.00146484 26.84057617 C-5.84332126 24.22333264 -5.64137777 21.72967118 -6 18 C-7.010625 17.195625 -8.02125 16.39125 -9.0625 15.5625 C-12 13 -12 13 -12.5703125 11.08984375 C-12.79269555 7.12401274 -12.229053 5.333168 -9.9375 2 C-6.23727467 -0.51930235 -4.3968344 -0.7066341 0 0 Z " fill="#0AB4BE" transform="translate(48,48)"/>
<path d="M0 0 C10.89 0 21.78 0 33 0 C33 2.97 33 5.94 33 9 C29.45147667 12.54852333 28.72151662 12.38357557 23.90625 12.3984375 C22.71128906 12.40230469 21.51632813 12.40617188 20.28515625 12.41015625 C19.03605469 12.39855469 17.78695312 12.38695312 16.5 12.375 C15.25089844 12.38660156 14.00179687 12.39820313 12.71484375 12.41015625 C10.92240234 12.40435547 10.92240234 12.40435547 9.09375 12.3984375 C7.99740234 12.39505371 6.90105469 12.39166992 5.77148438 12.38818359 C3 12 3 12 0 9 C0 6.03 0 3.06 0 0 Z " fill="#F2F5F6" transform="translate(49,134)"/>
<path d="M0 0 C1.67542976 0.28604898 3.34385343 0.61781233 5 1 C5.625 2.875 5.625 2.875 6 5 C5.34 5.66 4.68 6.32 4 7 C1.375 6.625 1.375 6.625 -1 6 C-1.042721 4.33388095 -1.04063832 2.66617115 -1 1 C-0.67 0.67 -0.34 0.34 0 0 Z " fill="#E1F1F2" transform="translate(86,63)"/>
<path d="M0 0 C2.125 0.375 2.125 0.375 4 1 C4.38218767 2.65614657 4.71395102 4.32457024 5 6 C4 7 4 7 1.4375 7.0625 C0.2309375 7.0315625 0.2309375 7.0315625 -1 7 C-1.625 4.625 -1.625 4.625 -2 2 C-1.34 1.34 -0.68 0.68 0 0 Z " fill="#DFF1F1" transform="translate(43,53)"/>
<path d="M0 0 C1.67542976 0.28604898 3.34385343 0.61781233 5 1 C5 2.65 5 4.3 5 6 C3.34385343 6.38218767 1.67542976 6.71395102 0 7 C-1 6 -1 6 -1.125 3.5 C-1 1 -1 1 0 0 Z " fill="#EBF5F5" transform="translate(66,36)"/>
</svg>